HIERARCHY
ROOT Root
{
  OFFSET 0.0 0.0 0.0
  CHANNELS 6 Xposition Yposition Zposition Zrotation Yrotation Xrotation
  JOINT Hips
  {
    OFFSET 0.0 100.0 0.0
    CHANNELS 6 Xposition Yposition Zposition Zrotation Yrotation Xrotation
    JOINT Spine1
    {
      OFFSET 5.003913 -0.037094 -0.013727
      CHANNELS 3 Zrotation Yrotation Xrotation
      JOINT Spine2
      {
        OFFSET 7.125363 -1e-06 0.0
        CHANNELS 3 Zrotation Yrotation Xrotation
        JOINT Chest
        {
          OFFSET 7.594027 1e-06 0.0
          CHANNELS 3 Zrotation Yrotation Xrotation
          JOINT Neck1
          {
            OFFSET 26.313086 -0.460272 -0.181672
            CHANNELS 3 Zrotation Yrotation Xrotation
            JOINT Neck2
            {
              OFFSET 8.045911 0.0 0.0
              CHANNELS 3 Zrotation Yrotation Xrotation
              JOINT Head
              {
                OFFSET 6.432774 0.0 0.0
                CHANNELS 3 Zrotation Yrotation Xrotation
                JOINT HeadEnd
                {
                  OFFSET 16.169773 0.06451 0.00362
                  CHANNELS 3 Zrotation Yrotation Xrotation
                }
                JOINT Jaw
                {
                  OFFSET 0.108741 3.12938 0.002639
                  CHANNELS 3 Zrotation Yrotation Xrotation
                }
                JOINT LeftEye
                {
                  OFFSET 4.45173 8.166359 3.206392
                  CHANNELS 3 Zrotation Yrotation Xrotation
                }
                JOINT RightEye
                {
                  OFFSET 4.436895 8.135758 -3.222429
                  CHANNELS 3 Zrotation Yrotation Xrotation
                }
              }
            }
          }
          JOINT LeftShoulder
          {
            OFFSET 23.218927 5.195579 1.621656
            CHANNELS 3 Zrotation Yrotation Xrotation
            JOINT LeftArm
            {
              OFFSET 15.902118 2e-06 -2e-06
              CHANNELS 3 Zrotation Yrotation Xrotation
              JOINT LeftForeArm
              {
                OFFSET 28.739307 0.0 -1e-06
                CHANNELS 3 Zrotation Yrotation Xrotation
                JOINT LeftHand
                {
                  OFFSET 27.093981 -4e-06 0.0
                  CHANNELS 3 Zrotation Yrotation Xrotation
                  JOINT LeftHandThumb1
                  {
                    OFFSET 2.276781 3.380274 0.83384
                    CHANNELS 3 Zrotation Yrotation Xrotation
                    JOINT LeftHandThumb2
                    {
                      OFFSET 4.705309 -1e-06 -1e-06
                      CHANNELS 3 Zrotation Yrotation Xrotation
                      JOINT LeftHandThumb3
                      {
                        OFFSET 2.798515 0.0 3e-06
                        CHANNELS 3 Zrotation Yrotation Xrotation
                        JOINT LeftHandThumbEnd
                        {
                          OFFSET 3.180793 4e-06 -4e-06
                          CHANNELS 3 Zrotation Yrotation Xrotation
                        }
                      }
                    }
                  }
                  JOINT LeftHandIndex1
                  {
                    OFFSET 3.247786 2.352677 0.137192
                    CHANNELS 3 Zrotation Yrotation Xrotation
                    JOINT LeftHandIndex2
                    {
                      OFFSET 6.367095 1e-06 0.0
                      CHANNELS 3 Zrotation Yrotation Xrotation
                      JOINT LeftHandIndex3
                      {
                        OFFSET 3.662364 0.0 0.0
                        CHANNELS 3 Zrotation Yrotation Xrotation
                        JOINT LeftHandIndex4
                        {
                          OFFSET 2.329242 4e-06 -4e-06
                          CHANNELS 3 Zrotation Yrotation Xrotation
                          JOINT LeftHandIndexEnd
                          {
                            OFFSET 2.767823 1e-06 0.0
                            CHANNELS 3 Zrotation Yrotation Xrotation
                          }
                        }
                      }
                    }
                  }
                  JOINT LeftHandMiddle1
                  {
                    OFFSET 3.163612 0.945023 -0.406112
                    CHANNELS 3 Zrotation Yrotation Xrotation
                    JOINT LeftHandMiddle2
                    {
                      OFFSET 6.276789 3e-06 0.0
                      CHANNELS 3 Zrotation Yrotation Xrotation
                      JOINT LeftHandMiddle3
                      {
                        OFFSET 4.35652 -1e-06 4e-06
                        CHANNELS 3 Zrotation Yrotation Xrotation
                        JOINT LeftHandMiddle4
                        {
                          OFFSET 2.996877 0.0 8e-06
                          CHANNELS 3 Zrotation Yrotation Xrotation
                          JOINT LeftHandMiddleEnd
                          {
                            OFFSET 2.323256 3e-06 -4e-06
                            CHANNELS 3 Zrotation Yrotation Xrotation
                          }
                        }
                      }
                    }
                  }
                  JOINT LeftHandRing1
                  {
                    OFFSET 2.882606 -0.309162 0.107445
                    CHANNELS 3 Zrotation Yrotation Xrotation
                    JOINT LeftHandRing2
                    {
                      OFFSET 6.033198 0.0 4e-06
                      CHANNELS 3 Zrotation Yrotation Xrotation
                      JOINT LeftHandRing3
                      {
                        OFFSET 4.350578 3e-06 0.0
                        CHANNELS 3 Zrotation Yrotation Xrotation
                        JOINT LeftHandRing4
                        {
                          OFFSET 2.651321 2e-06 -7e-06
                          CHANNELS 3 Zrotation Yrotation Xrotation
                          JOINT LeftHandRingEnd
                          {
                            OFFSET 1.937663 1e-06 -4e-06
                            CHANNELS 3 Zrotation Yrotation Xrotation
                          }
                        }
                      }
                    }
                  }
                  JOINT LeftHandPinky1
                  {
                    OFFSET 2.865315 -1.525436 0.575687
                    CHANNELS 3 Zrotation Yrotation Xrotation
                    JOINT LeftHandPinky2
                    {
                      OFFSET 5.54936 1e-06 -8e-06
                      CHANNELS 3 Zrotation Yrotation Xrotation
                      JOINT LeftHandPinky3
                      {
                        OFFSET 3.070974 0.0 -4e-06
                        CHANNELS 3 Zrotation Yrotation Xrotation
                        JOINT LeftHandPinky4
                        {
                          OFFSET 1.549672 1e-06 0.0
                          CHANNELS 3 Zrotation Yrotation Xrotation
                          JOINT LeftHandPinkyEnd
                          {
                            OFFSET 1.952123 0.0 0.0
                            CHANNELS 3 Zrotation Yrotation Xrotation
                          }
                        }
                      }
                    }
                  }
                }
              }
            }
          }
          JOINT RightShoulder
          {
            OFFSET 23.161716 5.296122 -1.380114
            CHANNELS 3 Zrotation Yrotation Xrotation
            JOINT RightArm
            {
              OFFSET -16.027195 -2e-06 1.1e-05
              CHANNELS 3 Zrotation Yrotation Xrotation
              JOINT RightForeArm
              {
                OFFSET -28.736639 4e-06 2e-06
                CHANNELS 3 Zrotation Yrotation Xrotation
                JOINT RightHand
                {
                  OFFSET -27.133619 6e-06 0.0
                  CHANNELS 3 Zrotation Yrotation Xrotation
                  JOINT RightHandThumb1
                  {
                    OFFSET -2.274328 -3.351035 -0.83067
                    CHANNELS 3 Zrotation Yrotation Xrotation
                    JOINT RightHandThumb2
                    {
                      OFFSET -4.703594 -3e-06 2e-06
                      CHANNELS 3 Zrotation Yrotation Xrotation
                      JOINT RightHandThumb3
                      {
                        OFFSET -2.794935 -4e-06 -3e-06
                        CHANNELS 3 Zrotation Yrotation Xrotation
                        JOINT RightHandThumbEnd
                        {
                          OFFSET -3.183852 4e-06 1e-06
                          CHANNELS 3 Zrotation Yrotation Xrotation
                        }
                      }
                    }
                  }
                  JOINT RightHandIndex1
                  {
                    OFFSET -3.253496 -2.33755 -0.127667
                    CHANNELS 3 Zrotation Yrotation Xrotation
                    JOINT RightHandIndex2
                    {
                      OFFSET -6.344434 0.0 0.0
                      CHANNELS 3 Zrotation Yrotation Xrotation
                      JOINT RightHandIndex3
                      {
                        OFFSET -3.654871 0.0 -8e-06
                        CHANNELS 3 Zrotation Yrotation Xrotation
                        JOINT RightHandIndex4
                        {
                          OFFSET -2.327586 -1e-06 0.0
                          CHANNELS 3 Zrotation Yrotation Xrotation
                          JOINT RightHandIndexEnd
                          {
                            OFFSET -2.770001 3e-06 8e-06
                            CHANNELS 3 Zrotation Yrotation Xrotation
                          }
                        }
                      }
                    }
                  }
                  JOINT RightHandMiddle1
                  {
                    OFFSET -3.168223 -0.944764 0.411762
                    CHANNELS 3 Zrotation Yrotation Xrotation
                    JOINT RightHandMiddle2
                    {
                      OFFSET -6.266691 -1e-06 -4e-06
                      CHANNELS 3 Zrotation Yrotation Xrotation
                      JOINT RightHandMiddle3
                      {
                        OFFSET -4.348901 0.0 0.0
                        CHANNELS 3 Zrotation Yrotation Xrotation
                        JOINT RightHandMiddle4
                        {
                          OFFSET -3.00024 2e-06 -4e-06
                          CHANNELS 3 Zrotation Yrotation Xrotation
                          JOINT RightHandMiddleEnd
                          {
                            OFFSET -2.321477 -4e-06 -4e-06
                            CHANNELS 3 Zrotation Yrotation Xrotation
                          }
                        }
                      }
                    }
                  }
                  JOINT RightHandRing1
                  {
                    OFFSET -2.885654 0.293261 -0.119232
                    CHANNELS 3 Zrotation Yrotation Xrotation
                    JOINT RightHandRing2
                    {
                      OFFSET -6.032835 -1e-06 -4e-06
                      CHANNELS 3 Zrotation Yrotation Xrotation
                      JOINT RightHandRing3
                      {
                        OFFSET -4.33881 0.0 -4e-06
                        CHANNELS 3 Zrotation Yrotation Xrotation
                        JOINT RightHandRing4
                        {
                          OFFSET -2.654903 -4e-06 -4e-06
                          CHANNELS 3 Zrotation Yrotation Xrotation
                          JOINT RightHandRingEnd
                          {
                            OFFSET -1.935122 0.0 4e-06
                            CHANNELS 3 Zrotation Yrotation Xrotation
                          }
                        }
                      }
                    }
                  }
                  JOINT RightHandPinky1
                  {
                    OFFSET -2.866241 1.503904 -0.60527
                    CHANNELS 3 Zrotation Yrotation Xrotation
                    JOINT RightHandPinky2
                    {
                      OFFSET -5.553177 -2e-06 0.0
                      CHANNELS 3 Zrotation Yrotation Xrotation
                      JOINT RightHandPinky3
                      {
                        OFFSET -3.062664 -1e-06 -4e-06
                        CHANNELS 3 Zrotation Yrotation Xrotation
                        JOINT RightHandPinky4
                        {
                          OFFSET -1.546529 2e-06 4e-06
                          CHANNELS 3 Zrotation Yrotation Xrotation
                          JOINT RightHandPinkyEnd
                          {
                            OFFSET -1.952341 0.0 -4e-06
                            CHANNELS 3 Zrotation Yrotation Xrotation
                          }
                        }
                      }
                    }
                  }
                }
              }
            }
          }
        }
      }
    }
    JOINT LeftLeg
    {
      OFFSET -8.443107 2.567604 10.043214
      CHANNELS 3 Zrotation Yrotation Xrotation
      JOINT LeftShin
      {
        OFFSET 43.229198 1e-06 -1e-06
        CHANNELS 3 Zrotation Yrotation Xrotation
        JOINT LeftFoot
        {
          OFFSET 42.298611 1e-06 1e-06
          CHANNELS 3 Zrotation Yrotation Xrotation
          JOINT LeftToeBase
          {
            OFFSET 14.165858 1e-06 0.0
            CHANNELS 3 Zrotation Yrotation Xrotation
            JOINT LeftToeEnd
            {
              OFFSET 6.7141 -0.234461 0.0
              CHANNELS 3 Zrotation Yrotation Xrotation
            }
          }
        }
      }
    }
    JOINT RightLeg
    {
      OFFSET -8.303923 2.592729 -10.047278
      CHANNELS 3 Zrotation Yrotation Xrotation
      JOINT RightShin
      {
        OFFSET -43.369682 0.0 1e-06
        CHANNELS 3 Zrotation Yrotation Xrotation
        JOINT RightFoot
        {
          OFFSET -42.260784 4e-06 2e-06
          CHANNELS 3 Zrotation Yrotation Xrotation
          JOINT RightToeBase
          {
            OFFSET -14.222245 -2e-06 -1e-06
            CHANNELS 3 Zrotation Yrotation Xrotation
            JOINT RightToeEnd
            {
              OFFSET -6.660062 0.232574 -2e-06
              CHANNELS 3 Zrotation Yrotation Xrotation
            }
          }
        }
      }
    }
  }
}
MOTION
Frames: 4
Frame Time: 0.03333333333333333
0.0 0.0 0.0 0.0 -0.0 0.0 6.650695 11.992561 123.43203 -12.803825 -88.131142 -166.328171 -1.066662 -0.744265 -0.308956 -11.166525 -0.261322 0.079882 10.534107 -0.601811 -1.403756 -1.53294 -0.284065 2.766863 -2.116434 0.244782 -1.826252 -20.946444 2.393973 -2.07108 5e-06 -0.0 0.0 -0.220102 -0.013703 0.054384 -0.434084 0.240783 -0.017879 -0.464704 -0.260286 0.140859 -20.391676 -69.578285 27.143112 14.207903 -2.196754 -75.399544 126.628555 0.818973 0.276909 -15.303399 16.102024 5.552852 17.636625 -26.322739 52.411205 -19.466663 -14.395596 29.410395 -1e-06 -8.774819 -2e-06 16.076405 -17.401461 5.630439 -0.609778 -1.795653 -3.889328 -4.807086 -11.046813 -2.937851 4e-06 -20.976019 1e-06 -5.01997 -25.033556 -4.031879 6e-06 -0.0 1e-06 -10.634533 -5.686971 -3.565589 10.573271 -17.922951 -3.1139 4e-06 -13.82121 -0.0 -0.501775 -31.181507 -4.027017 -10.586532 -58.943455 6.962561 -13.982712 -7.150198 -2.875044 13.772727 -8.40149 -3.21824 0.34773 -34.211555 0.771655 -0.963031 -17.733372 2.62102 -1e-06 -0.0 1e-06 -17.346416 -20.095219 -4.201784 21.757555 -1.638374 3.866429 2e-06 -6.338825 0.0 -1.697588 -22.591747 -6.194006 3e-06 -4e-06 -2e-06 166.747711 -68.908058 19.832138 17.985069 -15.59081 -73.942474 130.73555 0.868845 0.703249 -19.743731 22.648529 7.814754 22.182117 -20.375904 49.933327 -16.701817 -16.743532 28.47654 -3e-06 -12.690605 0.0 15.354364 -17.277117 2.738945 -0.10592 -1.513857 -4.275882 -5.039042 -5.612873 -2.953557 3e-06 -11.020527 -1e-06 -6.111301 -15.895339 -3.840473 -1e-06 0.0 1e-06 -10.283373 -5.68029 -4.341839 11.028296 -11.302407 -2.372633 -1.38427 -14.238583 -6.32012 -0.625439 -26.924194 -3.827603 -4.186132 -50.261765 -3.605778 -13.708528 -7.363478 -3.720938 18.141153 -14.052741 -3.242675 6e-06 -18.787271 -1e-06 -0.429713 -8.456045 2.555504 1e-06 0.0 -1e-06 -15.923541 -20.09449 -5.473586 30.419218 -7.190827 1.735925 3e-06 -8.162929 2e-06 -1.861901 -22.861473 -6.167945 -0.0 -2e-06 -1e-06 170.25148 -17.767813 -76.949562 20.328424 -17.000309 42.176353 -59.995296 11.946031 -2.939597 -6.868174 1.713194 2.903466 -0.999999 0.0 -1e-06 -6.528901 -15.436614 -87.572418 15.560346 -21.598135 52.915504 -91.498428 27.646877 -14.573875 -8.678199 0.618518 1.915929 -1.000001 0.0 0.0 
0.0 0.0 0.0 0.0 -0.0 0.0 6.663671 11.994934 123.406197 -13.318501 -88.106178 -165.842316 -1.078176 -0.742602 -0.319764 -11.184912 -0.269648 0.085525 10.548681 -0.577095 -1.363382 -1.405491 -0.403624 2.768098 -2.123397 0.216632 -1.900331 -21.008701 2.515419 -2.104348 6e-06 -0.0 -0.0 -0.222702 -0.027132 0.061156 -0.421665 0.218898 -0.003473 -0.454022 -0.26483 0.140184 -20.496733 -69.516304 27.300875 14.252561 -2.182486 -75.369102 126.564461 0.866137 0.325684 -15.310566 16.274561 5.792441 17.636625 -26.322721 52.411175 -19.466648 -14.395592 29.410378 -1e-06 -8.774816 -2e-06 16.062113 -17.433191 5.674448 -0.609776 -1.795653 -3.889326 -4.807086 -11.046803 -2.937848 3e-06 -20.976006 2e-06 -5.019969 -25.033539 -4.031876 6e-06 0.0 -1e-06 -10.634529 -5.686968 -3.565587 10.57327 -17.922941 -3.113899 3e-06 -13.821203 1e-06 -0.501782 -31.181488 -4.027011 -10.632875 -58.9874 7.012317 -13.982708 -7.150195 -2.875041 13.772721 -8.401486 -3.218239 0.347734 -34.211536 0.771655 -0.963031 -17.733362 2.62102 -0.0 0.0 1e-06 -17.346407 -20.095205 -4.201781 21.757544 -1.638372 3.866427 1e-06 -6.338821 -0.0 -1.697588 -22.59173 -6.194002 -1e-06 -3e-06 -1e-06 166.774536 -68.852608 19.860966 17.975752 -15.577237 -73.916832 130.705292 0.909304 0.737268 -19.819057 22.702974 7.826451 22.18211 -20.3759 49.933323 -16.701807 -16.743525 28.476528 -4e-06 -12.690599 -0.0 15.393561 -17.307779 2.752733 -0.10592 -1.513856 -4.275881 -5.039037 -5.612868 -2.953556 6e-06 -11.020519 -1e-06 -6.111297 -15.89533 -3.84047 0.0 0.0 1e-06 -10.283365 -5.680285 -4.341839 11.028288 -11.302402 -2.372633 -1.384267 -14.238577 -6.32012 -0.625438 -26.924183 -3.8276 -4.195996 -50.322666 -3.60055 -13.70852 -7.363472 -3.720941 18.141146 -14.052737 -3.242672 7e-06 -18.787262 1e-06 -0.429711 -8.456045 2.555504 2e-06 0.0 1e-06 -15.92353 -20.094475 -5.473587 30.419201 -7.190826 1.735925 3e-06 -8.162925 1e-06 -1.861901 -22.86146 -6.167939 -1e-06 -4e-06 -1e-06 170.138901 -17.838573 -76.907448 20.487246 -17.10894 42.120865 -59.987263 11.814822 -2.844902 -6.912465 1.708309 2.891723 -0.999999 1e-06 1e-06 -6.638161 -15.447884 -87.48172 15.646855 -21.706383 52.848839 -91.475334 27.592934 -14.554758 -8.634206 0.617946 1.906284 -1.000002 -0.0 -0.0 
0.0 0.0 0.0 0.0 -0.0 0.0 6.669558 11.989856 123.377205 -13.560476 -88.098541 -165.623642 -1.091195 -0.735448 -0.328916 -11.200719 -0.276933 0.090147 10.560604 -0.581949 -1.320435 -1.314421 -0.507425 2.758363 -2.125693 0.198205 -1.948885 -21.048796 2.593343 -2.148701 6e-06 -0.0 -0.0 -0.223927 -0.035541 0.065013 -0.415164 0.205257 0.00479 -0.448152 -0.26736 0.139718 -20.589294 -69.456902 27.40077 14.330335 -2.13864 -75.260735 126.468384 0.924738 0.373586 -15.286714 16.449299 6.060076 17.636612 -26.322721 52.411182 -19.466652 -14.395592 29.410385 -1e-06 -8.774817 -1e-06 16.049198 -17.464066 5.708794 -0.609775 -1.795654 -3.889328 -4.807086 -11.046807 -2.93785 2e-06 -20.976015 0.0 -5.019968 -25.033552 -4.031881 6e-06 1e-06 -1e-06 -10.634529 -5.68697 -3.565585 10.573269 -17.922947 -3.113899 3e-06 -13.821206 1e-06 -0.501779 -31.181498 -4.027014 -10.675814 -59.007397 7.053482 -13.982711 -7.150198 -2.875041 13.772727 -8.401488 -3.218241 0.34773 -34.211544 0.771655 -0.963029 -17.73337 2.621017 -1e-06 0.0 -0.0 -17.346413 -20.095215 -4.201779 21.757551 -1.63837 3.866428 -2e-06 -6.338823 -0.0 -1.697589 -22.591742 -6.194007 1e-06 -4e-06 -1e-06 166.777054 -68.834412 19.918222 17.990997 -15.545333 -73.909317 130.649307 0.929562 0.751694 -19.861153 22.742296 7.864292 22.182117 -20.375898 49.933323 -16.701813 -16.743528 28.476534 -4e-06 -12.690603 -0.0 15.443198 -17.349073 2.767511 -0.10592 -1.513856 -4.275883 -5.039039 -5.612872 -2.953556 6e-06 -11.020523 -1e-06 -6.1113 -15.895334 -3.840471 1e-06 0.0 1e-06 -10.283373 -5.680288 -4.341839 11.028295 -11.302406 -2.372632 -1.384267 -14.238585 -6.320121 -0.625438 -26.924191 -3.827601 -4.216416 -50.385822 -3.593042 -13.708527 -7.363476 -3.720939 18.141151 -14.052742 -3.242675 7e-06 -18.787271 -1e-06 -0.42971 -8.456047 2.555503 1e-06 0.0 -1e-06 -15.923536 -20.094482 -5.473585 30.41921 -7.190827 1.735925 4e-06 -8.162927 3e-06 -1.861901 -22.861473 -6.167942 1e-06 -3e-06 -1e-06 170.047226 -17.905289 -76.85054 20.660969 -17.192286 42.019539 -59.960163 11.650862 -2.749368 -6.952759 1.698609 2.884502 -0.999999 1e-06 1e-06 -6.741179 -15.481524 -87.435326 15.741248 -21.848032 52.80862 -91.443176 27.545446 -14.513109 -8.550385 0.611723 1.90047 -1.000002 0.0 -0.0 
0.0 0.0 0.0 0.0 -0.0 0.0 6.669769 11.960089 123.342224 -13.32873 -88.107521 -165.87059 -1.096951 -0.725037 -0.337434 -11.210856 -0.27366 0.09362 10.568209 -0.627339 -1.286151 -1.255608 -0.589268 2.751957 -2.123556 0.19687 -1.970828 -21.050804 2.614419 -2.187109 5e-06 -0.0 -0.0 -0.222685 -0.038117 0.065302 -0.411883 0.20127 0.006293 -0.444289 -0.267754 0.138426 -20.658607 -69.41745 27.431463 14.427397 -2.053964 -75.096931 126.334557 0.987222 0.419326 -15.240572 16.621046 6.265864 17.636625 -26.322741 52.411213 -19.466658 -14.395598 29.410395 -1e-06 -8.774821 -1e-06 16.044823 -17.491745 5.722089 -0.609775 -1.795654 -3.889327 -4.807086 -11.046811 -2.937851 2e-06 -20.976019 1e-06 -5.019971 -25.033558 -4.03188 6e-06 1e-06 1e-06 -10.634532 -5.68697 -3.565588 10.573276 -17.922951 -3.113901 4e-06 -13.82121 1e-06 -0.501781 -31.181505 -4.027011 -10.708982 -59.008846 7.074156 -13.982712 -7.150199 -2.875041 13.772729 -8.40149 -3.218241 0.347733 -34.211555 0.771653 -0.963031 -17.733372 2.621021 0.0 -1e-06 1e-06 -17.346418 -20.095219 -4.201779 21.757559 -1.638374 3.866427 1e-06 -6.338826 1e-06 -1.69759 -22.591747 -6.194005 -0.0 -4e-06 -1e-06 166.732208 -68.8424 20.02183 18.041012 -15.520847 -73.869011 130.59523 0.958481 0.729338 -19.821718 22.844248 7.919738 22.182117 -20.375895 49.933308 -16.701818 -16.743534 28.476532 -3e-06 -12.690603 -1e-06 15.486865 -17.383928 2.774296 -0.105919 -1.513856 -4.275881 -5.039041 -5.612871 -2.953555 5e-06 -11.02052 -1e-06 -6.1113 -15.89533 -3.840469 -0.0 0.0 0.0 -10.283371 -5.680288 -4.341836 11.028296 -11.302406 -2.372634 -1.384266 -14.238581 -6.320121 -0.625438 -26.924189 -3.827601 -4.236357 -50.449856 -3.579509 -13.708527 -7.363475 -3.720938 18.14115 -14.052739 -3.242674 6e-06 -18.787268 -1e-06 -0.429709 -8.456045 2.555503 1e-06 1e-06 1e-06 -15.923538 -20.094482 -5.473583 30.41921 -7.190826 1.735925 3e-06 -8.162927 -0.0 -1.861897 -22.861467 -6.167945 0.0 -4e-06 -2e-06 169.991028 -17.972609 -76.826019 20.845232 -17.279039 41.918297 -59.932129 11.505232 -2.703339 -6.959264 1.692984 2.882689 -1.0 1e-06 1e-06 -6.841423 -15.543443 -87.432388 15.858714 -22.030628 52.821812 -91.210892 27.414234 -14.363372 -8.452829 0.603065 1.899596 -1.000002 -0.0 0.0 
